# xmcd CD database file
#
# Track frame offsets:
#	150
#	14777
#	32790
#	47725
#	68245
#	89922
#	107825
#	126787
#	143770
#	160047
#	176712
#	197095
#	217765
#	233517
#	247925
#	274630
#	296970
#	321747
#
# Disc length: 4655 seconds
#
# Revision: 0
# Processed by: cddbd v1.5.1PL0 Copyright (c) Steve Scherf et al.
# Submitted via: CDex 1.51
#
DISCID=12122d12
DTITLE=Kenny Wayne Shepherd Band - Live On - Giant Records
DYEAR=1999
DGENRE=Blues
TTITLE0=In 2 Deep
TTITLE1=Was
TTITLE2=Them Changes
TTITLE3=Last Goodbye
TTITLE4=Shotgun Blues
TTITLE5=Never Mind
TTITLE6=You Should Know Better
TTITLE7=Every Time It Rains
TTITLE8=Oh Well
TTITLE9=Wild Love
TTITLE10=Losing Kind
TTITLE11=Live On
TTITLE12=Where Was I?
TTITLE13=Electric Lullaby
TTITLE14=Born With A Broken Heart
TTITLE15=Chese The Rainbow
TTITLE16=What's Goin' Down
TTITLE17=Shame Shame Shame
EXTD=YEAR: 1999
EXTT0=
EXTT1=
EXTT2=
EXTT3=
EXTT4=
EXTT5=
EXTT6=
EXTT7=
EXTT8=
EXTT9=
EXTT10=
EXTT11=
EXTT12=
EXTT13=
EXTT14=
EXTT15=
EXTT16=
EXTT17=
PLAYORDER=
